%TF.GenerationSoftware,KiCad,Pcbnew,6.0.4-6f826c9f35~116~ubuntu20.04.1*%
%TF.CreationDate,2022-06-01T18:14:12+02:00*%
%TF.ProjectId,CursoKicad_CircularFab2022_1,43757273-6f4b-4696-9361-645f43697263,rev?*%
%TF.SameCoordinates,Original*%
%TF.FileFunction,Legend,Top*%
%TF.FilePolarity,Positive*%
%FSLAX46Y46*%
G04 Gerber Fmt 4.6, Leading zero omitted, Abs format (unit mm)*
G04 Created by KiCad (PCBNEW 6.0.4-6f826c9f35~116~ubuntu20.04.1) date 2022-06-01 18:14:12*
%MOMM*%
%LPD*%
G01*
G04 APERTURE LIST*
%ADD10C,0.150000*%
%ADD11C,0.120000*%
G04 APERTURE END LIST*
D10*
%TO.C,R1*%
X164112380Y-92876666D02*
X163636190Y-93210000D01*
X164112380Y-93448095D02*
X163112380Y-93448095D01*
X163112380Y-93067142D01*
X163160000Y-92971904D01*
X163207619Y-92924285D01*
X163302857Y-92876666D01*
X163445714Y-92876666D01*
X163540952Y-92924285D01*
X163588571Y-92971904D01*
X163636190Y-93067142D01*
X163636190Y-93448095D01*
X164112380Y-91924285D02*
X164112380Y-92495714D01*
X164112380Y-92210000D02*
X163112380Y-92210000D01*
X163255238Y-92305238D01*
X163350476Y-92400476D01*
X163398095Y-92495714D01*
%TO.C,D1*%
X159281904Y-79342380D02*
X159281904Y-78342380D01*
X159520000Y-78342380D01*
X159662857Y-78390000D01*
X159758095Y-78485238D01*
X159805714Y-78580476D01*
X159853333Y-78770952D01*
X159853333Y-78913809D01*
X159805714Y-79104285D01*
X159758095Y-79199523D01*
X159662857Y-79294761D01*
X159520000Y-79342380D01*
X159281904Y-79342380D01*
X160805714Y-79342380D02*
X160234285Y-79342380D01*
X160520000Y-79342380D02*
X160520000Y-78342380D01*
X160424761Y-78485238D01*
X160329523Y-78580476D01*
X160234285Y-78628095D01*
D11*
%TO.C,R1*%
X161290000Y-96750000D02*
X161290000Y-95980000D01*
X161290000Y-88670000D02*
X161290000Y-89440000D01*
X162660000Y-89440000D02*
X159920000Y-89440000D01*
X159920000Y-95980000D02*
X162660000Y-95980000D01*
X159920000Y-89440000D02*
X159920000Y-95980000D01*
X162660000Y-95980000D02*
X162660000Y-89440000D01*
%TO.C,D1*%
X162580000Y-76475000D02*
X162580000Y-73385000D01*
X162580000Y-73385170D02*
G75*
G03*
X157030000Y-74930462I-2560000J-1544830D01*
G01*
X157030000Y-74929538D02*
G75*
G03*
X162580000Y-76474830I2990000J-462D01*
G01*
X162520000Y-74930000D02*
G75*
G03*
X162520000Y-74930000I-2500000J0D01*
G01*
%TD*%
M02*
