%TF.GenerationSoftware,KiCad,Pcbnew,6.0.4-6f826c9f35~116~ubuntu20.04.1*%
%TF.CreationDate,2022-06-01T18:14:12+02:00*%
%TF.ProjectId,CursoKicad_CircularFab2022_1,43757273-6f4b-4696-9361-645f43697263,rev?*%
%TF.SameCoordinates,Original*%
%TF.FileFunction,Legend,Bot*%
%TF.FilePolarity,Positive*%
%FSLAX46Y46*%
G04 Gerber Fmt 4.6, Leading zero omitted, Abs format (unit mm)*
G04 Created by KiCad (PCBNEW 6.0.4-6f826c9f35~116~ubuntu20.04.1) date 2022-06-01 18:14:12*
%MOMM*%
%LPD*%
G01*
G04 APERTURE LIST*
%ADD10C,0.150000*%
%ADD11C,0.120000*%
G04 APERTURE END LIST*
D10*
%TO.C,BT1*%
X153598571Y-86844285D02*
X153646190Y-86987142D01*
X153693809Y-87034761D01*
X153789047Y-87082380D01*
X153931904Y-87082380D01*
X154027142Y-87034761D01*
X154074761Y-86987142D01*
X154122380Y-86891904D01*
X154122380Y-86510952D01*
X153122380Y-86510952D01*
X153122380Y-86844285D01*
X153170000Y-86939523D01*
X153217619Y-86987142D01*
X153312857Y-87034761D01*
X153408095Y-87034761D01*
X153503333Y-86987142D01*
X153550952Y-86939523D01*
X153598571Y-86844285D01*
X153598571Y-86510952D01*
X153122380Y-87368095D02*
X153122380Y-87939523D01*
X154122380Y-87653809D02*
X153122380Y-87653809D01*
X154122380Y-88796666D02*
X154122380Y-88225238D01*
X154122380Y-88510952D02*
X153122380Y-88510952D01*
X153265238Y-88415714D01*
X153360476Y-88320476D01*
X153408095Y-88225238D01*
D11*
X151960000Y-85970000D02*
X154160000Y-83770000D01*
X144150000Y-101940000D02*
X142440000Y-101940000D01*
X147950000Y-73320000D02*
X149660000Y-73320000D01*
X151960000Y-89290000D02*
X151960000Y-85970000D01*
X137940000Y-79782700D02*
X137940000Y-95477300D01*
X149660000Y-101940000D02*
X149660000Y-98322000D01*
X142440000Y-98322000D02*
X142440000Y-101940000D01*
X149660000Y-76938000D02*
X149660000Y-73320000D01*
X154160000Y-95477300D02*
X154160000Y-91490000D01*
X151960000Y-89290000D02*
X154160000Y-91490000D01*
X142440000Y-73320000D02*
X142440000Y-76938000D01*
X144150000Y-73320000D02*
X142440000Y-73320000D01*
X154160000Y-83770000D02*
X154160000Y-79782700D01*
X147950000Y-101940000D02*
X149660000Y-101940000D01*
X149660000Y-98322000D02*
G75*
G03*
X154161789Y-95475371I-3610012J10692020D01*
G01*
X137938211Y-95475371D02*
G75*
G03*
X142440000Y-98322000I8111789J7845371D01*
G01*
X142440000Y-76938001D02*
G75*
G03*
X137938211Y-79784629I3610010J-10692019D01*
G01*
X154161789Y-79784629D02*
G75*
G03*
X149660000Y-76938000I-8111785J-7845366D01*
G01*
%TD*%
M02*
