%TF.GenerationSoftware,KiCad,Pcbnew,6.0.4-6f826c9f35~116~ubuntu20.04.1*%
%TF.CreationDate,2022-06-01T18:14:12+02:00*%
%TF.ProjectId,CursoKicad_CircularFab2022_1,43757273-6f4b-4696-9361-645f43697263,rev?*%
%TF.SameCoordinates,Original*%
%TF.FileFunction,Copper,L2,Bot*%
%TF.FilePolarity,Positive*%
%FSLAX46Y46*%
G04 Gerber Fmt 4.6, Leading zero omitted, Abs format (unit mm)*
G04 Created by KiCad (PCBNEW 6.0.4-6f826c9f35~116~ubuntu20.04.1) date 2022-06-01 18:14:12*
%MOMM*%
%LPD*%
G01*
G04 APERTURE LIST*
%TA.AperFunction,ComponentPad*%
%ADD10C,1.600000*%
%TD*%
%TA.AperFunction,ComponentPad*%
%ADD11O,1.600000X1.600000*%
%TD*%
%TA.AperFunction,ComponentPad*%
%ADD12R,1.800000X1.800000*%
%TD*%
%TA.AperFunction,ComponentPad*%
%ADD13C,1.800000*%
%TD*%
%TA.AperFunction,SMDPad,CuDef*%
%ADD14R,3.510000X2.540000*%
%TD*%
%TA.AperFunction,ViaPad*%
%ADD15C,0.800000*%
%TD*%
%TA.AperFunction,Conductor*%
%ADD16C,0.250000*%
%TD*%
G04 APERTURE END LIST*
D10*
%TO.P,R1,1*%
%TO.N,Net-(D1-Pad1)*%
X161290000Y-87630000D03*
D11*
%TO.P,R1,2*%
%TO.N,GND*%
X161290000Y-97790000D03*
%TD*%
D12*
%TO.P,D1,1,K*%
%TO.N,Net-(D1-Pad1)*%
X161290000Y-74930000D03*
D13*
%TO.P,D1,2,A*%
%TO.N,VCC*%
X158750000Y-74930000D03*
%TD*%
D14*
%TO.P,BT1,1,+*%
%TO.N,VCC*%
X146050000Y-72950000D03*
%TO.P,BT1,2,-*%
%TO.N,GND*%
X146050000Y-102310000D03*
%TD*%
D15*
%TO.N,VCC*%
X152400000Y-74930000D03*
%TD*%
D16*
%TO.N,VCC*%
X150420000Y-72950000D02*
X146050000Y-72950000D01*
X152400000Y-74930000D02*
X150420000Y-72950000D01*
%TD*%
%TA.AperFunction,Conductor*%
%TO.N,GND*%
G36*
X167582121Y-69870002D02*
G01*
X167628614Y-69923658D01*
X167640000Y-69976000D01*
X167640000Y-105284000D01*
X167619998Y-105352121D01*
X167566342Y-105398614D01*
X167514000Y-105410000D01*
X132206000Y-105410000D01*
X132137879Y-105389998D01*
X132091386Y-105336342D01*
X132080000Y-105284000D01*
X132080000Y-103624669D01*
X143787001Y-103624669D01*
X143787371Y-103631490D01*
X143792895Y-103682352D01*
X143796521Y-103697604D01*
X143841676Y-103818054D01*
X143850214Y-103833649D01*
X143926715Y-103935724D01*
X143939276Y-103948285D01*
X144041351Y-104024786D01*
X144056946Y-104033324D01*
X144177394Y-104078478D01*
X144192649Y-104082105D01*
X144243514Y-104087631D01*
X144250328Y-104088000D01*
X145777885Y-104088000D01*
X145793124Y-104083525D01*
X145794329Y-104082135D01*
X145796000Y-104074452D01*
X145796000Y-104069884D01*
X146304000Y-104069884D01*
X146308475Y-104085123D01*
X146309865Y-104086328D01*
X146317548Y-104087999D01*
X147849669Y-104087999D01*
X147856490Y-104087629D01*
X147907352Y-104082105D01*
X147922604Y-104078479D01*
X148043054Y-104033324D01*
X148058649Y-104024786D01*
X148160724Y-103948285D01*
X148173285Y-103935724D01*
X148249786Y-103833649D01*
X148258324Y-103818054D01*
X148303478Y-103697606D01*
X148307105Y-103682351D01*
X148312631Y-103631486D01*
X148313000Y-103624672D01*
X148313000Y-102582115D01*
X148308525Y-102566876D01*
X148307135Y-102565671D01*
X148299452Y-102564000D01*
X146322115Y-102564000D01*
X146306876Y-102568475D01*
X146305671Y-102569865D01*
X146304000Y-102577548D01*
X146304000Y-104069884D01*
X145796000Y-104069884D01*
X145796000Y-102582115D01*
X145791525Y-102566876D01*
X145790135Y-102565671D01*
X145782452Y-102564000D01*
X143805116Y-102564000D01*
X143789877Y-102568475D01*
X143788672Y-102569865D01*
X143787001Y-102577548D01*
X143787001Y-103624669D01*
X132080000Y-103624669D01*
X132080000Y-102037885D01*
X143787000Y-102037885D01*
X143791475Y-102053124D01*
X143792865Y-102054329D01*
X143800548Y-102056000D01*
X145777885Y-102056000D01*
X145793124Y-102051525D01*
X145794329Y-102050135D01*
X145796000Y-102042452D01*
X145796000Y-102037885D01*
X146304000Y-102037885D01*
X146308475Y-102053124D01*
X146309865Y-102054329D01*
X146317548Y-102056000D01*
X148294884Y-102056000D01*
X148310123Y-102051525D01*
X148311328Y-102050135D01*
X148312999Y-102042452D01*
X148312999Y-100995331D01*
X148312629Y-100988510D01*
X148307105Y-100937648D01*
X148303479Y-100922396D01*
X148258324Y-100801946D01*
X148249786Y-100786351D01*
X148173285Y-100684276D01*
X148160724Y-100671715D01*
X148058649Y-100595214D01*
X148043054Y-100586676D01*
X147922606Y-100541522D01*
X147907351Y-100537895D01*
X147856486Y-100532369D01*
X147849672Y-100532000D01*
X146322115Y-100532000D01*
X146306876Y-100536475D01*
X146305671Y-100537865D01*
X146304000Y-100545548D01*
X146304000Y-102037885D01*
X145796000Y-102037885D01*
X145796000Y-100550116D01*
X145791525Y-100534877D01*
X145790135Y-100533672D01*
X145782452Y-100532001D01*
X144250331Y-100532001D01*
X144243510Y-100532371D01*
X144192648Y-100537895D01*
X144177396Y-100541521D01*
X144056946Y-100586676D01*
X144041351Y-100595214D01*
X143939276Y-100671715D01*
X143926715Y-100684276D01*
X143850214Y-100786351D01*
X143841676Y-100801946D01*
X143796522Y-100922394D01*
X143792895Y-100937649D01*
X143787369Y-100988514D01*
X143787000Y-100995328D01*
X143787000Y-102037885D01*
X132080000Y-102037885D01*
X132080000Y-98056522D01*
X160007273Y-98056522D01*
X160054764Y-98233761D01*
X160058510Y-98244053D01*
X160150586Y-98441511D01*
X160156069Y-98451007D01*
X160281028Y-98629467D01*
X160288084Y-98637875D01*
X160442125Y-98791916D01*
X160450533Y-98798972D01*
X160628993Y-98923931D01*
X160638489Y-98929414D01*
X160835947Y-99021490D01*
X160846239Y-99025236D01*
X161018503Y-99071394D01*
X161032599Y-99071058D01*
X161036000Y-99063116D01*
X161036000Y-99057967D01*
X161544000Y-99057967D01*
X161547973Y-99071498D01*
X161556522Y-99072727D01*
X161733761Y-99025236D01*
X161744053Y-99021490D01*
X161941511Y-98929414D01*
X161951007Y-98923931D01*
X162129467Y-98798972D01*
X162137875Y-98791916D01*
X162291916Y-98637875D01*
X162298972Y-98629467D01*
X162423931Y-98451007D01*
X162429414Y-98441511D01*
X162521490Y-98244053D01*
X162525236Y-98233761D01*
X162571394Y-98061497D01*
X162571058Y-98047401D01*
X162563116Y-98044000D01*
X161562115Y-98044000D01*
X161546876Y-98048475D01*
X161545671Y-98049865D01*
X161544000Y-98057548D01*
X161544000Y-99057967D01*
X161036000Y-99057967D01*
X161036000Y-98062115D01*
X161031525Y-98046876D01*
X161030135Y-98045671D01*
X161022452Y-98044000D01*
X160022033Y-98044000D01*
X160008502Y-98047973D01*
X160007273Y-98056522D01*
X132080000Y-98056522D01*
X132080000Y-97518503D01*
X160008606Y-97518503D01*
X160008942Y-97532599D01*
X160016884Y-97536000D01*
X161017885Y-97536000D01*
X161033124Y-97531525D01*
X161034329Y-97530135D01*
X161036000Y-97522452D01*
X161036000Y-97517885D01*
X161544000Y-97517885D01*
X161548475Y-97533124D01*
X161549865Y-97534329D01*
X161557548Y-97536000D01*
X162557967Y-97536000D01*
X162571498Y-97532027D01*
X162572727Y-97523478D01*
X162525236Y-97346239D01*
X162521490Y-97335947D01*
X162429414Y-97138489D01*
X162423931Y-97128993D01*
X162298972Y-96950533D01*
X162291916Y-96942125D01*
X162137875Y-96788084D01*
X162129467Y-96781028D01*
X161951007Y-96656069D01*
X161941511Y-96650586D01*
X161744053Y-96558510D01*
X161733761Y-96554764D01*
X161561497Y-96508606D01*
X161547401Y-96508942D01*
X161544000Y-96516884D01*
X161544000Y-97517885D01*
X161036000Y-97517885D01*
X161036000Y-96522033D01*
X161032027Y-96508502D01*
X161023478Y-96507273D01*
X160846239Y-96554764D01*
X160835947Y-96558510D01*
X160638489Y-96650586D01*
X160628993Y-96656069D01*
X160450533Y-96781028D01*
X160442125Y-96788084D01*
X160288084Y-96942125D01*
X160281028Y-96950533D01*
X160156069Y-97128993D01*
X160150586Y-97138489D01*
X160058510Y-97335947D01*
X160054764Y-97346239D01*
X160008606Y-97518503D01*
X132080000Y-97518503D01*
X132080000Y-87630000D01*
X159976502Y-87630000D01*
X159996457Y-87858087D01*
X160055716Y-88079243D01*
X160058039Y-88084224D01*
X160058039Y-88084225D01*
X160150151Y-88281762D01*
X160150154Y-88281767D01*
X160152477Y-88286749D01*
X160283802Y-88474300D01*
X160445700Y-88636198D01*
X160450208Y-88639355D01*
X160450211Y-88639357D01*
X160528389Y-88694098D01*
X160633251Y-88767523D01*
X160638233Y-88769846D01*
X160638238Y-88769849D01*
X160835775Y-88861961D01*
X160840757Y-88864284D01*
X160846065Y-88865706D01*
X160846067Y-88865707D01*
X161056598Y-88922119D01*
X161056600Y-88922119D01*
X161061913Y-88923543D01*
X161290000Y-88943498D01*
X161518087Y-88923543D01*
X161523400Y-88922119D01*
X161523402Y-88922119D01*
X161733933Y-88865707D01*
X161733935Y-88865706D01*
X161739243Y-88864284D01*
X161744225Y-88861961D01*
X161941762Y-88769849D01*
X161941767Y-88769846D01*
X161946749Y-88767523D01*
X162051611Y-88694098D01*
X162129789Y-88639357D01*
X162129792Y-88639355D01*
X162134300Y-88636198D01*
X162296198Y-88474300D01*
X162427523Y-88286749D01*
X162429846Y-88281767D01*
X162429849Y-88281762D01*
X162521961Y-88084225D01*
X162521961Y-88084224D01*
X162524284Y-88079243D01*
X162583543Y-87858087D01*
X162603498Y-87630000D01*
X162583543Y-87401913D01*
X162524284Y-87180757D01*
X162521961Y-87175775D01*
X162429849Y-86978238D01*
X162429846Y-86978233D01*
X162427523Y-86973251D01*
X162296198Y-86785700D01*
X162134300Y-86623802D01*
X162129792Y-86620645D01*
X162129789Y-86620643D01*
X162051611Y-86565902D01*
X161946749Y-86492477D01*
X161941767Y-86490154D01*
X161941762Y-86490151D01*
X161744225Y-86398039D01*
X161744224Y-86398039D01*
X161739243Y-86395716D01*
X161733935Y-86394294D01*
X161733933Y-86394293D01*
X161523402Y-86337881D01*
X161523400Y-86337881D01*
X161518087Y-86336457D01*
X161290000Y-86316502D01*
X161061913Y-86336457D01*
X161056600Y-86337881D01*
X161056598Y-86337881D01*
X160846067Y-86394293D01*
X160846065Y-86394294D01*
X160840757Y-86395716D01*
X160835776Y-86398039D01*
X160835775Y-86398039D01*
X160638238Y-86490151D01*
X160638233Y-86490154D01*
X160633251Y-86492477D01*
X160528389Y-86565902D01*
X160450211Y-86620643D01*
X160450208Y-86620645D01*
X160445700Y-86623802D01*
X160283802Y-86785700D01*
X160152477Y-86973251D01*
X160150154Y-86978233D01*
X160150151Y-86978238D01*
X160058039Y-87175775D01*
X160055716Y-87180757D01*
X159996457Y-87401913D01*
X159976502Y-87630000D01*
X132080000Y-87630000D01*
X132080000Y-74268134D01*
X143786500Y-74268134D01*
X143793255Y-74330316D01*
X143844385Y-74466705D01*
X143931739Y-74583261D01*
X144048295Y-74670615D01*
X144184684Y-74721745D01*
X144246866Y-74728500D01*
X147853134Y-74728500D01*
X147915316Y-74721745D01*
X148051705Y-74670615D01*
X148168261Y-74583261D01*
X148255615Y-74466705D01*
X148306745Y-74330316D01*
X148313500Y-74268134D01*
X148313500Y-73709500D01*
X148333502Y-73641379D01*
X148387158Y-73594886D01*
X148439500Y-73583500D01*
X150105406Y-73583500D01*
X150173527Y-73603502D01*
X150194501Y-73620405D01*
X151452878Y-74878783D01*
X151486904Y-74941095D01*
X151489093Y-74954706D01*
X151506458Y-75119928D01*
X151565473Y-75301556D01*
X151660960Y-75466944D01*
X151788747Y-75608866D01*
X151943248Y-75721118D01*
X151949276Y-75723802D01*
X151949278Y-75723803D01*
X152049944Y-75768622D01*
X152117712Y-75798794D01*
X152211112Y-75818647D01*
X152298056Y-75837128D01*
X152298061Y-75837128D01*
X152304513Y-75838500D01*
X152495487Y-75838500D01*
X152501939Y-75837128D01*
X152501944Y-75837128D01*
X152588888Y-75818647D01*
X152682288Y-75798794D01*
X152750056Y-75768622D01*
X152850722Y-75723803D01*
X152850724Y-75723802D01*
X152856752Y-75721118D01*
X153011253Y-75608866D01*
X153139040Y-75466944D01*
X153234527Y-75301556D01*
X153293542Y-75119928D01*
X153313504Y-74930000D01*
X153309875Y-74895469D01*
X157337095Y-74895469D01*
X157337392Y-74900622D01*
X157337392Y-74900625D01*
X157349658Y-75113365D01*
X157350427Y-75126697D01*
X157351564Y-75131743D01*
X157351565Y-75131749D01*
X157383741Y-75274523D01*
X157401346Y-75352642D01*
X157488484Y-75567237D01*
X157609501Y-75764719D01*
X157761147Y-75939784D01*
X157939349Y-76087730D01*
X158139322Y-76204584D01*
X158355694Y-76287209D01*
X158360760Y-76288240D01*
X158360761Y-76288240D01*
X158413846Y-76299040D01*
X158582656Y-76333385D01*
X158712089Y-76338131D01*
X158808949Y-76341683D01*
X158808953Y-76341683D01*
X158814113Y-76341872D01*
X158819233Y-76341216D01*
X158819235Y-76341216D01*
X158893166Y-76331745D01*
X159043847Y-76312442D01*
X159048795Y-76310957D01*
X159048802Y-76310956D01*
X159260747Y-76247369D01*
X159265690Y-76245886D01*
X159346236Y-76206427D01*
X159469049Y-76146262D01*
X159469052Y-76146260D01*
X159473684Y-76143991D01*
X159662243Y-76009494D01*
X159707309Y-75964585D01*
X159769681Y-75930669D01*
X159840487Y-75935857D01*
X159897249Y-75978503D01*
X159914231Y-76009607D01*
X159939385Y-76076705D01*
X160026739Y-76193261D01*
X160143295Y-76280615D01*
X160279684Y-76331745D01*
X160341866Y-76338500D01*
X162238134Y-76338500D01*
X162300316Y-76331745D01*
X162436705Y-76280615D01*
X162553261Y-76193261D01*
X162640615Y-76076705D01*
X162691745Y-75940316D01*
X162698500Y-75878134D01*
X162698500Y-73981866D01*
X162691745Y-73919684D01*
X162640615Y-73783295D01*
X162553261Y-73666739D01*
X162436705Y-73579385D01*
X162300316Y-73528255D01*
X162238134Y-73521500D01*
X160341866Y-73521500D01*
X160279684Y-73528255D01*
X160143295Y-73579385D01*
X160026739Y-73666739D01*
X159939385Y-73783295D01*
X159936233Y-73791703D01*
X159936232Y-73791705D01*
X159915538Y-73846906D01*
X159872897Y-73903671D01*
X159806335Y-73928371D01*
X159736986Y-73913164D01*
X159714167Y-73896666D01*
X159713887Y-73896358D01*
X159581373Y-73791705D01*
X159536177Y-73756011D01*
X159536172Y-73756008D01*
X159532123Y-73752810D01*
X159527607Y-73750317D01*
X159527604Y-73750315D01*
X159333879Y-73643373D01*
X159333875Y-73643371D01*
X159329355Y-73640876D01*
X159324486Y-73639152D01*
X159324482Y-73639150D01*
X159115903Y-73565288D01*
X159115899Y-73565287D01*
X159111028Y-73563562D01*
X159105935Y-73562655D01*
X159105932Y-73562654D01*
X158888095Y-73523851D01*
X158888089Y-73523850D01*
X158883006Y-73522945D01*
X158810096Y-73522054D01*
X158656581Y-73520179D01*
X158656579Y-73520179D01*
X158651411Y-73520116D01*
X158422464Y-73555150D01*
X158202314Y-73627106D01*
X158197726Y-73629494D01*
X158197722Y-73629496D01*
X158044036Y-73709500D01*
X157996872Y-73734052D01*
X157992739Y-73737155D01*
X157992736Y-73737157D01*
X157815790Y-73870012D01*
X157811655Y-73873117D01*
X157651639Y-74040564D01*
X157648725Y-74044836D01*
X157648724Y-74044837D01*
X157575348Y-74152402D01*
X157521119Y-74231899D01*
X157423602Y-74441981D01*
X157361707Y-74665169D01*
X157337095Y-74895469D01*
X153309875Y-74895469D01*
X153293542Y-74740072D01*
X153234527Y-74558444D01*
X153139040Y-74393056D01*
X153011253Y-74251134D01*
X152856752Y-74138882D01*
X152850724Y-74136198D01*
X152850722Y-74136197D01*
X152688319Y-74063891D01*
X152688318Y-74063891D01*
X152682288Y-74061206D01*
X152585176Y-74040564D01*
X152501944Y-74022872D01*
X152501939Y-74022872D01*
X152495487Y-74021500D01*
X152439594Y-74021500D01*
X152371473Y-74001498D01*
X152350499Y-73984595D01*
X150923652Y-72557747D01*
X150916112Y-72549461D01*
X150912000Y-72542982D01*
X150862348Y-72496356D01*
X150859507Y-72493602D01*
X150839770Y-72473865D01*
X150836573Y-72471385D01*
X150827551Y-72463680D01*
X150801100Y-72438841D01*
X150795321Y-72433414D01*
X150788375Y-72429595D01*
X150788372Y-72429593D01*
X150777566Y-72423652D01*
X150761047Y-72412801D01*
X150760583Y-72412441D01*
X150745041Y-72400386D01*
X150737772Y-72397241D01*
X150737768Y-72397238D01*
X150704463Y-72382826D01*
X150693813Y-72377609D01*
X150655060Y-72356305D01*
X150635437Y-72351267D01*
X150616734Y-72344863D01*
X150605420Y-72339967D01*
X150605419Y-72339967D01*
X150598145Y-72336819D01*
X150590322Y-72335580D01*
X150590312Y-72335577D01*
X150554476Y-72329901D01*
X150542856Y-72327495D01*
X150507711Y-72318472D01*
X150507710Y-72318472D01*
X150500030Y-72316500D01*
X150479776Y-72316500D01*
X150460065Y-72314949D01*
X150447886Y-72313020D01*
X150440057Y-72311780D01*
X150432165Y-72312526D01*
X150396039Y-72315941D01*
X150384181Y-72316500D01*
X148439500Y-72316500D01*
X148371379Y-72296498D01*
X148324886Y-72242842D01*
X148313500Y-72190500D01*
X148313500Y-71631866D01*
X148306745Y-71569684D01*
X148255615Y-71433295D01*
X148168261Y-71316739D01*
X148051705Y-71229385D01*
X147915316Y-71178255D01*
X147853134Y-71171500D01*
X144246866Y-71171500D01*
X144184684Y-71178255D01*
X144048295Y-71229385D01*
X143931739Y-71316739D01*
X143844385Y-71433295D01*
X143793255Y-71569684D01*
X143786500Y-71631866D01*
X143786500Y-74268134D01*
X132080000Y-74268134D01*
X132080000Y-69976000D01*
X132100002Y-69907879D01*
X132153658Y-69861386D01*
X132206000Y-69850000D01*
X167514000Y-69850000D01*
X167582121Y-69870002D01*
G37*
%TD.AperFunction*%
%TD*%
M02*
